<svg xmlns="http://www.w3.org/2000/svg" viewBox="0 0 24 24" fill="none">
  <path d="M12 15.25A3.25 3.25 0 1 0 12 8.75a3.25 3.25 0 0 0 0 6.5Z" stroke="currentColor" stroke-width="2" stroke-linecap="round" stroke-linejoin="round"/>
  <path d="M19.43 13.5c.06-.49.06-1.01 0-1.5l2-1.55-2-3.46-2.5 1a7.8 7.8 0 0 0-1.3-.75L15.25 4h-6.5l-.38 3.24c-.46.2-.9.45-1.3.75l-2.5-1-2 3.46 2 1.55a7.46 7.46 0 0 0 0 1.5l-2 1.55 2 3.46 2.5-1c.4.3.84.55 1.3.75l.38 3.24h6.5l.38-3.24c.46-.2.9-.45 1.3-.75l2.5 1 2-3.46-2-1.55Z" stroke="currentColor" stroke-width="2" stroke-linecap="round" stroke-linejoin="round"/>
</svg>
